<?xml version="1.0" encoding="utf-8"?>
<!-- Generator: Adobe Illustrator 24.1.3, SVG Export Plug-In . SVG Version: 6.00 Build 0)  -->
<svg version="1.1" id="Layer_1" xmlns="http://www.w3.org/2000/svg" xmlns:xlink="http://www.w3.org/1999/xlink" x="0px" y="0px"
	 width="125px" height="110px" viewBox="0 0 125 110" enable-background="new 0 0 125 110" xml:space="preserve">
<g>
	<path fill="#E4E8EA" d="M121.2,41c-2.1,0-3.8,1.7-3.8,3.8s1.7,3.8,3.8,3.8c2.1,0,3.8-1.7,3.8-3.8S123.3,41,121.2,41z M121.2,47.1
		c-1.2,0-2.3-1-2.3-2.3c0-1.2,1-2.3,2.3-2.3c1.2,0,2.3,1,2.3,2.3C123.4,46,122.4,47.1,121.2,47.1z"/>
	<path fill="#E4E8EA" d="M14.3,53.3c-0.8,0-1.4,0.6-1.4,1.4s0.6,1.4,1.4,1.4c0.8,0,1.4-0.6,1.4-1.4S15.1,53.3,14.3,53.3z M15,54.8
		c0,0.4-0.3,0.7-0.7,0.7s-0.7-0.3-0.7-0.7s0.3-0.7,0.7-0.7S15,54.4,15,54.8z"/>
	<path fill="#E4E8EA" d="M64.1,2.8c-0.8,0-1.4,0.6-1.4,1.4s0.6,1.4,1.4,1.4c0.8,0,1.4-0.6,1.4-1.4S64.9,2.8,64.1,2.8z M64.8,4.2
		c0,0.4-0.3,0.7-0.7,0.7c-0.4,0-0.7-0.3-0.7-0.7c0-0.4,0.3-0.7,0.7-0.7C64.5,3.5,64.8,3.8,64.8,4.2z"/>
	<path fill="#E4E8EA" d="M97.9,90.1c-0.8,0-1.4,0.6-1.4,1.4s0.6,1.4,1.4,1.4s1.4-0.6,1.4-1.4S98.7,90.1,97.9,90.1z M98.6,91.5
		c0,0.4-0.3,0.7-0.7,0.7s-0.7-0.3-0.7-0.7s0.3-0.7,0.7-0.7S98.6,91.1,98.6,91.5z"/>
	<path fill="#E4E8EA" d="M10.6,30.1c-0.1-0.2-0.3-0.2-0.6-0.2H6.2v-3.8c0-0.4-0.4-0.8-0.8-0.8c-0.4,0-0.8,0.4-0.8,0.8v3.8H0.8
		c-0.4,0-0.8,0.4-0.8,0.8c0,0.4,0.4,0.8,0.8,0.8h3.8v3.8C4.6,35.7,5,36,5.4,36c0.4,0,0.8-0.4,0.8-0.8v-3.7h3.7
		c0.5,0,0.8-0.4,0.8-0.8C10.8,30.5,10.7,30.3,10.6,30.1z"/>
	<path fill="#E4E8EA" d="M114.5,70.8h-0.9v-0.9c0-0.2-0.2-0.4-0.4-0.4c-0.2,0-0.4,0.2-0.4,0.4v0.9H112c-0.2,0-0.4,0.2-0.4,0.4
		c0,0.2,0.2,0.4,0.4,0.4h0.9v0.9c0,0.2,0.2,0.4,0.4,0.4c0.2,0,0.4-0.2,0.4-0.4v-0.9h0.9c0.2,0,0.4-0.2,0.4-0.4
		C114.9,70.9,114.7,70.8,114.5,70.8z"/>
	<path fill="#E4E8EA" d="M32.6,13.2h-0.9v-0.9c0-0.2-0.2-0.4-0.4-0.4S31,12.1,31,12.3v0.9h-0.9c-0.2,0-0.4,0.2-0.4,0.4
		c0,0.2,0.2,0.4,0.4,0.4H31v0.9c0,0.2,0.2,0.4,0.4,0.4s0.4-0.2,0.4-0.4v-0.9h0.9c0.2,0,0.4-0.2,0.4-0.4C33,13.4,32.8,13.2,32.6,13.2
		z"/>
	<path fill="#E4E8EA" d="M27.3,83.3h-0.9v-0.9c0-0.2-0.2-0.4-0.4-0.4s-0.4,0.2-0.4,0.4v0.9h-0.9c-0.2,0-0.4,0.2-0.4,0.4
		c0,0.2,0.2,0.4,0.4,0.4h0.9v0.9c0,0.2,0.2,0.4,0.4,0.4s0.4-0.2,0.4-0.4V84h0.9c0.2,0,0.4-0.2,0.4-0.4
		C27.7,83.5,27.5,83.3,27.3,83.3z"/>
	<path fill="#E4E8EA" d="M103.3,12h5.8c0.6,0,1.1-0.5,1.1-1.1c0-0.6-0.5-1.1-1.1-1.1h-5.8V4.1c0-0.6-0.5-1.1-1.1-1.1
		c-0.6,0-1.1,0.5-1.1,1.1v5.8h-5.8c-0.6,0-1.1,0.5-1.1,1.1c0,0.6,0.5,1.1,1.1,1.1h5.8v5.8c0,0.6,0.5,1.1,1.1,1.1
		c0.6,0,1.1-0.5,1.1-1.1V12z"/>
	<g>
		<path fill="#515B7E" d="M80.3,97.2c-0.6,0.3-1.6,0.6-2.8,1c-1.3,0.4-2.5,0.5-3.5,0.5c-2.1,0-3.6-0.3-4.4-1
			c-0.8-0.6-1.2-1.9-1.2-3.8c0-0.8,0.1-2,0.4-3.5c0.3-1.6,0.6-3,1-4.2l4.4-15.4c0.4-1.5,0.7-3.1,0.9-4.8c0.2-1.7,0.2-2.9,0.2-3.6
			c0-3.4-1.2-6.2-3.6-8.3c-2.4-2.1-5.8-3.2-10.1-3.2c-2.4,0-4.9,0.4-7.6,1.3c-2.6,0.8-5.4,1.8-8.3,3l-0.2,0.1l-1.5,6l0.9-0.4
			c0.9-0.3,2-0.7,3-1c1.1-0.3,2.2-0.5,3.3-0.5c2.2,0,3.6,0.3,4.3,1c0.7,0.7,1.1,1.9,1.1,3.8c0,1.1-0.1,2.3-0.4,3.5
			c-0.3,1.3-0.6,2.6-1,4.2l-4.4,15.5c-0.4,1.7-0.7,3.1-0.9,4.4c-0.2,1.3-0.3,2.6-0.3,3.9c0,3.3,1.2,6.1,3.7,8.3
			c2.4,2.1,5.9,3.2,10.2,3.2c2.8,0,5.3-0.4,7.4-1.1c2.1-0.7,4.9-1.8,8.4-3.2l0.3-0.1l1.5-6.1L80.3,97.2z M78.9,102.1
			c-3.3,1.3-6.1,2.3-8.1,3.1c-2,0.7-4.4,1.1-7.1,1.1c-4.1,0-7.3-1-9.6-3c-2.3-2-3.3-4.4-3.3-7.5c0-1.2,0.1-2.5,0.3-3.7
			c0.2-1.3,0.5-2.7,0.8-4.3l4.4-15.5c0.4-1.6,0.7-3,1-4.2c0.3-1.3,0.4-2.6,0.4-3.8c0-2.1-0.5-3.6-1.4-4.5c-0.9-0.9-2.6-1.3-5-1.3
			c-1.2,0-2.4,0.2-3.6,0.5c-0.7,0.2-1.5,0.5-2.2,0.7l0.9-3.6c2.8-1.1,5.4-2.1,8-2.9c2.5-0.8,5-1.2,7.3-1.2c4.1,0,7.2,1,9.4,2.9
			c2.2,1.9,3.3,4.5,3.3,7.5c0,0.6-0.1,1.8-0.2,3.5c-0.1,1.6-0.4,3.2-0.9,4.6l-4.4,15.5c-0.4,1.2-0.7,2.6-1,4.3
			c-0.3,1.6-0.4,2.8-0.4,3.7c0,2.2,0.5,3.8,1.6,4.6c1,0.8,2.7,1.2,5.1,1.2c1.1,0,2.3-0.2,3.7-0.6c0.8-0.2,1.5-0.4,2-0.6L78.9,102.1z
			"/>
		<path fill="#515B7E" d="M66,43.1c3,0,5.6-1,7.7-3c2.1-2,3.2-4.4,3.2-7.3c0-2.8-1.1-5.3-3.2-7.3c-2.1-2-4.7-3-7.7-3
			c-3,0-5.6,1-7.7,3c-2.1,2-3.2,4.5-3.2,7.3c0,2.8,1.1,5.3,3.2,7.3C60.4,42.1,63,43.1,66,43.1z M59,26.3c1.9-1.8,4.3-2.7,7-2.7
			c2.7,0,5.1,0.9,7,2.7c1.9,1.8,2.9,4,2.9,6.5c0,2.5-1,4.7-2.9,6.5c-1.9,1.8-4.3,2.7-7,2.7c-2.7,0-5.1-0.9-7-2.7
			c-1.9-1.8-2.9-4-2.9-6.5C56.1,30.3,57.1,28.1,59,26.3z"/>
	</g>
</g>
</svg>
